<svg id="visual" viewBox="0 0 450 1200" width="450" height="1200" xmlns="http://www.w3.org/2000/svg" xmlns:xlink="http://www.w3.org/1999/xlink" version="1.1"><path d="M403 1200L385.5 1177.8C368 1155.7 333 1111.3 309.7 1066.8C286.3 1022.3 274.7 977.7 269.2 933.2C263.7 888.7 264.3 844.3 286.5 800C308.7 755.7 352.3 711.3 373.7 666.8C395 622.3 394 577.7 391.7 533.2C389.3 488.7 385.7 444.3 376 400C366.3 355.7 350.7 311.3 337.3 266.8C324 222.3 313 177.7 315 133.2C317 88.7 332 44.3 339.5 22.2L347 0L450 0L450 22.2C450 44.3 450 88.7 450 133.2C450 177.7 450 222.3 450 266.8C450 311.3 450 355.7 450 400C450 444.3 450 488.7 450 533.2C450 577.7 450 622.3 450 666.8C450 711.3 450 755.7 450 800C450 844.3 450 888.7 450 933.2C450 977.7 450 1022.3 450 1066.8C450 1111.3 450 1155.7 450 1177.8L450 1200Z" fill="#FFFFFF" stroke-linecap="round" stroke-linejoin="miter"></path></svg>